PathFileType	4	(X/Y/Z)	C:/Users/beibeiliu/ov580/test_trc\sequence.45_training_dense_right.trc
DataRate	CameraRate	NumFrames	NumMarkers	Units	OrigDataRate	OrigDataStartFrame	OrigNumFrames
120	120	14	19	mm	120	1	84
Frame#	Time	ThumbCMC			ThumbMCP			ThumbIP			ThumbTip			IndexMCP			IndexPIP			IndexTip			MiddleMCP			MiddlePIP			MiddleTip			RingMCP			RingPIP			RingTip			PinkyMCP			PinkyPIP			PinkyTip			BackHand1			BackHand2			BackHand3	
		X0	Y0	Z0	X1	Y1	Z1	X2	Y2	Z2	X3	Y3	Z3	X4	Y4	Z4	X5	Y5	Z5	X6	Y6	Z6	X7	Y7	Z7	X8	Y8	Z8	X9	Y9	Z9	X10	Y10	Z10	X11	Y11	Z11	X12	Y12	Z12	X13	Y13	Z13	X14	Y14	Z14	X15	Y15	Z15	X16	Y16	Z16	X17	Y17	Z17	X18	Y18	Z18	
0	0	50.5456	17.1141	28.3733	29.1271	1.82809	8.43893	24.114	-7.74847	-14.1117	21.8815	-16.8947	-32.2475	52.8237	21.7008	-39.6284	47.4673	8.52488	-63.7103	39.4231	-3.3796	-78.8883	75.6667	16.2595	-46.7403	68.6182	5.7477	-69.5969	67.2601	-13.3891	-90.2435	91.3824	8.4318	-41.5849	89.0045	-2.191	-63.3413	87.5496	-15.5354	-82.0097	107.035	1.26303	-30.1113	109.157	-7.74863	-47.3715	111.405	-15.6125	-62.6642	95.6417	25.7318	2.01856	97.2829	32.6426	28.9361	71.9204	36.0654	17.0523	
1	0.00833333	47.4074	17.0741	23.7864	32.6946	2.01954	9.62376	25.4144	-7.38666	-15.4233	18.5112	-18.0195	-30.3504	51.7963	20.9464	-39.1574	44.5437	10.4736	-63.5054	41.8226	-6.05255	-81.1726	71.1481	16.9677	-45.2846	66.335	3.64753	-72.4176	65.5126	-13.711	-91.7593	88.1389	8.87045	-43.5802	92.76	-2.15318	-60.3807	85.6255	-14.4645	-81.355	105.639	1.4198	-28.9663	108.849	-7.98165	-48.1531	106.518	-16.0762	-65.5125	94.3133	25.2572	2.30265	96.4182	31.5487	28.6277	70.2597	37.0124	14.0297	
2	0.0166667	46.6926	16.7242	28.9961	33.4109	1.26014	6.90922	24.206	-7.90863	-14.8472	22.1775	-17.056	-32.0702	52.634	20.7472	-39.7029	45.0426	12.6076	-60.2801	43.941	-2.59643	-79.5813	71.1613	15.7139	-50.1984	66.8815	4.53905	-72.1645	66.5783	-14.0544	-92.9103	91.4112	8.44002	-42.1655	89.316	-0.753203	-60.1903	87.1918	-14.031	-80.043	106.474	2.39368	-30.6589	109.279	-7.36864	-45.3308	108.717	-13.2926	-62.0877	95.2834	25.2	1.20591	99.3027	31.4621	25.7074	72.5311	36.8703	15.3726	
3	0.025	47.703	17.0684	22.3823	33.1391	1.24108	5.67047	27.8814	-8.23419	-19.9787	23.5316	-19.3145	-36.7246	55.3377	23.0012	-41.3666	50.5764	11.9562	-67.7143	51.3034	-1.50356	-85.0695	80.0147	16.7706	-51.0233	76.0457	4.50932	-76.1734	75.0021	-12.1734	-94.4335	94.3311	10.4355	-46.3351	95.1418	-0.746568	-66.7746	91.0363	-12.4127	-83.4161	110.411	2.90234	-31.2582	112.732	-5.64372	-45.626	114.962	-15.1181	-67.2779	95.9617	27.6479	-0.892349	100.06	29.6925	26.7691	71.2447	36.6288	9.49785	
4	0.0333333	53.5684	14.9848	10.4966	41.8608	-2.45495	-5.32003	34.8849	-13.068	-27.8433	32.0293	-25.1848	-45.7949	69.0956	20.7764	-54.5223	64.7109	13.8305	-76.0009	66.8033	-1.88693	-94.8723	87.4677	16.6152	-56.2638	87.5683	2.96891	-84.6599	87.2571	-11.0108	-102.961	104.631	7.71984	-48.6501	104.63	-3.12996	-74.7932	104.557	-15.0323	-92.8816	121.627	-1.20044	-34.8359	124.546	-10.7048	-56.3985	126.458	-20.4988	-72.9229	104.983	23.6703	-5.07548	110.068	27.9103	19.3033	84.5405	32.8307	4.29798	
5	0.0416667	66.3443	3.05841	-7.23558	57.2499	-15.3911	-21.2773	49.5025	-26.7401	-37.7662	43.798	-38.5972	-55.3983	82.6154	9.44548	-68.8199	87.5364	0.133532	-92.905	81.7148	-12.9972	-114.36	106.689	4.41839	-70.3379	109.507	-6.42811	-95.8387	107.92	-21.2394	-115.685	120.208	-3.66379	-65.2296	125.709	-14.2778	-84.4508	121.364	-26.4374	-101.338	138.516	-14.0805	-49.5942	139.016	-21.482	-64.5526	145.428	-34.8788	-84.1171	122.058	11.3775	-21.0372	118.52	17.587	2.88061	96.5986	22.1493	-14.98	
6	0.05	81.4364	-11.6909	-25.2612	67.137	-30.5605	-37.9191	58.4514	-44.5495	-56.9421	53.1101	-57.9828	-69.8612	101.203	-8.13049	-86.9661	101.648	-17.1422	-112.075	107.133	-32.5461	-128.958	121.776	-11.8886	-88.5106	126.497	-24.6105	-112.079	128.97	-43.3361	-131.394	141.149	-21.376	-79.2155	144.574	-34.2799	-98.2956	142.921	-49.2962	-113.481	151.187	-29.2713	-61.2505	158.032	-44.6357	-77.2065	159.192	-59.4815	-94.0156	132.325	-0.707094	-35.1469	128.127	5.20993	-12.0321	107.616	7.76398	-33.069	
7	0.0583333	90.8142	-26.0682	-38.1825	79.9463	-47.603	-54.1714	73.0679	-62.4677	-71.0498	67.5331	-77.2999	-86.2322	116.183	-26.7025	-102.716	122.682	-40.9562	-126.179	123.532	-57.8557	-143.875	140.699	-34.0766	-101.853	144.853	-49.3511	-124.496	148.199	-75.7713	-139.77	156.69	-43.8818	-89.8454	160.295	-60.8289	-107.711	152.968	-77.3893	-119.569	164.471	-49.213	-69.4895	168.025	-64.8573	-84.0812	167.424	-86.4442	-96.5749	145.452	-18.1495	-52.5846	139.514	-9.42983	-24.1037	117.819	-6.84887	-46.5801	
8	0.0666667	103.948	-39.3945	-51.2326	89.9489	-60.1491	-62.9897	86.1973	-74.8458	-78.3147	80.965	-91.6359	-92.9715	131.772	-43.1042	-109.701	135.17	-56.3381	-132.056	136.188	-75.5547	-143.678	154.109	-50.1148	-105.188	157.555	-72.5769	-127.866	153.269	-94.9437	-133.91	163.941	-58.3337	-91.2815	165.936	-79.1428	-108.245	154.758	-104.738	-113.145	174.522	-68.2521	-73.2562	171.356	-87.3152	-87.1189	163.38	-107.343	-88.8646	159.441	-33.9423	-54.5622	152.01	-25.1447	-31.5801	131.597	-21.3361	-52.067	
9	0.075	104.924	-38.5979	-49.3724	93.3123	-62.5144	-66.4125	89.961	-77.0511	-82.2033	89.5141	-95.764	-98.375	140.447	-48.4392	-108.357	138.37	-61.4208	-129.29	133.401	-89.2149	-137.974	156.819	-58.566	-107.654	155.95	-84.7555	-123.752	142.609	-107.286	-122.588	166.859	-69.3245	-89.3665	161.164	-91.2427	-104.478	141.817	-110.408	-100.238	174.959	-80.894	-71.0033	164.456	-99.255	-83.3633	143.158	-110.508	-82.3677	158.081	-42.1891	-51.6737	156.119	-34.3346	-30.5409	140.083	-25.5477	-50.1018	
10	0.0833333	107.832	-33.7396	-47.924	90.2171	-53.9905	-68.4184	86.5108	-70.6425	-84.0079	91.8254	-90.2636	-97.2786	137.436	-42.0614	-102.226	133.378	-62.4545	-126.5	124.712	-85.6921	-126.682	153.63	-60.4536	-101.629	147.775	-84.3324	-116.094	124.723	-102.695	-106.142	161.065	-74.4987	-88.2322	147.268	-93.9436	-97.8334	123.855	-102.451	-85.928	164.906	-84.8814	-67.8131	147.592	-98.5894	-77.9842	121.71	-99.1188	-67.5598	156.893	-42.4905	-45.2395	153.792	-33.1186	-22.0944	138.925	-25.3646	-44.5785	
11	0.0916667	99.9099	-18.8465	-37.0851	87.7067	-37.1127	-59.537	82.5991	-54.1421	-82.2657	85.4032	-74.4281	-95.4064	129.7	-29.5155	-98.4488	122.877	-50.1373	-117.768	102.358	-69.3201	-111.889	140.601	-46.8281	-94.2982	126.695	-72.5787	-108.819	101.464	-80.8844	-93.0031	146.494	-65.4715	-83.1744	127.13	-82.7135	-88.4483	104.459	-79.1228	-69.7468	145.852	-75.2749	-68.217	124.21	-86.9605	-69.7243	107.232	-78.3398	-53.8161	152.904	-38.1145	-42.7752	147.098	-28.4386	-16.3464	132.995	-14.278	-41.614	
12	0.1	91.3522	4.27195	-27.6356	77.4263	-11.5915	-50.8346	71.6061	-24.6199	-69.1479	72.961	-43.8406	-85.2523	120.237	-7.64482	-90.5588	107.006	-26.5813	-106.115	84.137	-36.2104	-98.0468	125.524	-29.3098	-89.4507	104.417	-50.9149	-94.4506	84.6709	-50.8543	-73.5853	126.469	-47.416	-75.8061	101.585	-60.4995	-74.3976	86.9416	-47.8814	-54.8858	127.414	-60.0181	-59.7678	103.313	-61.6817	-60.1538	92.2782	-47.1378	-42.2618	142.351	-21.0322	-32.4873	136.706	-16.016	-6.77804	127.272	4.43693	-26.0313	
13	0.108333	87.0626	29.3887	-12.1338	66.3445	21.6287	-35.636	61.8837	9.82535	-55.0529	57.9841	-7.98251	-69.4582	109.372	18.0279	-70.8226	90.8296	4.69363	-89.3629	64.8058	-1.06484	-72.1228	111.899	-4.99831	-69.9325	85.3527	-17.3194	-79.5578	67.6414	-12.5831	-49.9108	105.704	-23.687	-61.872	80.7165	-22.4124	-60.7256	71.0669	-15.8191	-37.6427	107.748	-34.7284	-44.6515	80.7099	-30.4557	-42.3759	76.7297	-15.0266	-27.3607	127.806	-0.740079	-15.6234	125.69	2.85843	6.92876	119.191	26.959	-9.56816	
